<?xml version="1.0" encoding="UTF-8"?>
<svg id="_Слой_2" data-name="Слой 2" xmlns="http://www.w3.org/2000/svg" viewBox="0 0 444.03 429">
  <defs>
    <style>
      .cls-1 {
        fill: #fef100;
      }

      .cls-1, .cls-2, .cls-3, .cls-4, .cls-5, .cls-6, .cls-7 {
        stroke-width: 0px;
      }

      .cls-2 {
        fill: none;
      }

      .cls-3 {
        fill: #22b04c;
      }

      .cls-4 {
        fill: #188238;
      }

      .cls-5 {
        fill: #feadc8;
      }

      .cls-6 {
        fill: #fe4f87;
      }

      .cls-7 {
        fill: #fec80e;
      }
    </style>
  </defs>
  <g id="_Слой_4" data-name="Слой 4">
    <g>
      <path class="cls-2" d="m69.45,86.9c-.47.17-.95.32-1.43.47.48-.15.96-.31,1.43-.47Z"/>
      <path class="cls-2" d="m89.06,84.07c-.99-2.17-2.18-4.24-3.59-6.21-.6-.93-.88-1.69-.84-2.27-.04.59.24,1.34.84,2.27,1.41,1.98,2.61,4.05,3.59,6.21Z"/>
      <path class="cls-2" d="m78.7,47.65c-.47-.81-.71-1.97-.72-3.5,1.01-3.2,1.6-6.4,1.65-9.57-.06,3.17-.64,6.37-1.65,9.57,0,1.53.24,2.69.72,3.5Z"/>
      <path class="cls-2" d="m87.49,74.07c-1.06.02-1.81.2-2.29.53.47-.33,1.23-.51,2.29-.53,4.16,1.56,9.37.69,13.69-1.62-4.32,2.31-9.53,3.18-13.69,1.62Z"/>
      <path class="cls-2" d="m78.7,47.65c.16.27.34.5.55.69-.21-.19-.39-.42-.55-.69Z"/>
      <path class="cls-2" d="m102.83,37.71c-1.92,1.23-3.77,2.56-5.49,4.08-2.21.04-4.42.08-6.63.12,2.21-.04,4.42-.08,6.63-.12,1.73-1.52,3.58-2.85,5.49-4.08Z"/>
      <path class="cls-2" d="m25.11,68.12c-1.27-.41-2.53-.92-3.76-1.52,1.23.6,2.49,1.11,3.76,1.52Z"/>
      <path class="cls-2" d="m89.06,84.07c.49,1.08.93,2.19,1.33,3.33-.39-1.14-.83-2.24-1.33-3.33Z"/>
      <path class="cls-2" d="m53.04,40.42c5.24-1.73,11.11-1.89,16.76-.21-5.64-1.68-11.52-1.52-16.76.21Z"/>
      <path class="cls-2" d="m44.02,48.28c.18-.05.34-.14.49-.25-.15.11-.3.19-.49.25Z"/>
      <path class="cls-2" d="m58.39,92.18c-1.9,3.92-4.53,6.82-7.71,8.86,3.18-2.04,5.8-4.94,7.71-8.86.78-1.27,1.56-2.54,2.34-3.81.48,0,.95,0,1.43,0-.48,0-.95,0-1.43,0-.78,1.27-1.56,2.54-2.34,3.81Z"/>
      <path class="cls-2" d="m37.31,73.03c.04.26.04.52,0,.8.04-.27.03-.54,0-.8Z"/>
      <path class="cls-2" d="m29,69.1c1.98.36,4,.52,6.08.5.81.86,1.63,1.72,2.03,2.69-.4-.97-1.22-1.83-2.03-2.69-2.08.01-4.1-.15-6.08-.5Z"/>
      <path class="cls-2" d="m45.77,44.17s0,0,0,0c-1.93-7.95-.97-18.2,3.7-24.61-4.67,6.41-5.63,16.66-3.7,24.61-.21,2.05-.5,3.24-1.17,3.8.67-.56.96-1.75,1.17-3.8Z"/>
      <path class="cls-4" d="m442.52,190.86c-1.13-9.46-2.94-18.74-5.19-27.95-4.61-18.83-12.03-36.53-21.78-53.29-8.76-15.05-19.21-28.84-31.18-41.45-8.48-8.94-18.01-16.74-27.83-24.18-15.1-11.45-31.82-20.02-49.14-27.48-4.22-1.82-4.8-1.23-6.52,3.47-2.79,7.6-5.69,15.16-8.6,22.71-7.83,20.29-15.7,40.57-23.54,60.85-2.18,5.65-4.34,11.31-6.51,16.97-.84-1.25-.99-2.4-.97-3.55.09-4.7-.65-9.36-.91-14.04-.58-10.4-2.06-20.75-2.79-31.15-.65-9.2-1.4-18.38-2.25-27.56-1.21-13.23-2.12-26.49-2.99-39.74-.14-2.14-1.17-2.92-2.87-2.92-3.96.01-7.81-1.25-11.81-.86-1.07.11-2.49.76-3.34-.69h-24.7c-4.03,1.78-8.37.74-12.56,1.31-8.58,1.17-17.14,2.4-25.57,4.32-13.58,3.1-26.8,7.26-39.58,12.96-14.5,6.47-28.48,13.73-41.18,23.32,2.21-.04,4.42-.08,6.63-.12,1.73-1.52,3.58-2.85,5.49-4.08,3.19-2.05,6.57-3.8,9.88-5.61,17.5-9.59,35.81-17.31,55.33-21.82,12.91-2.99,25.93-5.12,39.21-5.96,7.72-.49,15.41-.48,23.11-.5,4.81-.01,9.62.81,14.44,1.02,3.19.14,4.37,2.02,4.37,4.68,0,7.71,1.14,15.33,1.65,22.99.74,10.98,1.91,21.94,2.85,32.91.58,6.79,1.06,13.58,1.58,20.38,1,12.96,2.02,25.92,2.99,38.89.11,1.44.62,2.36,2.16,2.52,1.91.21,3.42-.15,4.19-2.2,1.8-4.76,3.7-9.48,5.53-14.24,11.38-29.67,22.79-59.34,34.07-89.05.82-2.16,1.86-1.83,3.29-1.19,11.14,4.98,22.16,10.2,32.49,16.73,11.87,7.51,22.91,16.05,33.3,25.58,19.78,18.14,35.24,39.38,46.83,63.44,9.04,18.76,15.01,38.51,17.91,59.23,1.64,11.73,2.44,23.46,2.08,35.26-.52,17.28-3.24,34.25-8.09,50.84-6.26,21.4-15.74,41.3-28.42,59.63-8.06,11.67-17.05,22.63-27.38,32.35-14.24,13.39-29.86,24.94-47.06,34.39-20.43,11.23-42.17,18.72-64.95,23.2-8.84,1.74-17.83,2.7-26.87,3.38-7.35.55-14.68.68-21.99.48-14.37-.39-28.6-2.24-42.68-5.31-18.19-3.97-35.51-10.4-52.12-18.65-13.36-6.63-25.8-14.85-37.46-24.21-6.89-5.53-13.6-11.27-19.71-17.61-13.22-13.74-24.52-28.91-33.85-45.61-11.02-19.72-18.38-40.71-22.55-62.81-2.91-15.4-4.11-31.06-3.11-46.71,1.42-22.11,5.78-43.68,14.06-64.36,4.44-11.1,9.75-21.77,15.83-32.06-.98-.73-1.95-1.45-2.93-2.18-1.91,3.23-3.97,6.39-5.7,9.72-7.52,14.55-13.8,29.59-17.96,45.5C2.74,177.76.19,194.98,0,212.55c-.09,8.28.65,16.5,1.4,24.74.87,9.63,2.7,19.06,5.03,28.37,4.53,18.04,11.44,35.18,20.66,51.38,9.17,16.11,20.21,30.82,33,44.19,7.41,7.74,15.57,14.69,24.1,21.21,19.04,14.55,39.83,25.79,62.45,33.73,21.06,7.39,42.8,11.35,64.99,12.56,11.47.63,22.98.05,34.47-1.25,12.25-1.38,24.25-3.65,36.16-6.78,22.96-6.03,44.28-15.66,64-28.71,15.48-10.24,29.83-21.85,42.18-35.91,6.4-7.28,12.48-14.75,18.07-22.64,9.09-12.83,16.32-26.68,22.28-41.21,8.95-21.8,13.66-44.6,14.96-68.04.62-11.1.07-22.23-1.26-33.35Z"/>
      <path class="cls-6" d="m62.55,92.86c3.83,5.37,8.06,10.19,14.54,12.3,5.25,1.71,10.26,2.2,14.8-2,4.69-4.34,4.4-9.5,2.75-14.87-1-3.24-2.41-6.36-3.63-9.53,15.42-1.13,22.42-9.08,22.63-19.93.16-8.47-5.83-16.03-16.3-17.03-2.21.04-4.42.08-6.63.12-2.69.92-5.38,1.84-8.24,2.81-.05-.83-.12-1.32-.1-1.81.02-.49.1-.98.17-1.47,1.2-8.46,1.14-16.54-4.46-23.88-5.29-6.92-12.33-9.1-20.26-7.64-7.87,1.45-12.58,7.1-15.15,14.59-2.07,6-1.32,12.22-1.52,18.35-1.2.15-2-.5-2.87-.93-5.7-2.82-11.57-3.35-17.44-.76-7.01,3.08-12.56,9.95-10.28,18.84,1.5,5.85,6.05,9.14,11.48,11.02,3.5,1.21,7.2,1.84,10.94,2.77-1.72,4.6-3.64,8.82-4.72,13.38-1.54,6.52-2.52,12.82,2.56,18.36.98.73,1.95,1.45,2.93,2.18,10.99,3.68,24.74-5.64,28.8-14.86Zm-31.71-.19c1.22-5.91,2.78-11.72,5.73-17.05.45-.64.68-1.23.75-1.78.04-.27.03-.54,0-.8-.04-.26-.11-.5-.21-.75-.4-.97-1.22-1.83-2.03-2.69-2.08.01-4.1-.15-6.08-.5-1.32-.24-2.61-.56-3.89-.98-1.27-.41-2.53-.92-3.76-1.52-.62-.3-1.23-.63-1.83-.98-8.56-4.95-7.3-15.13.93-19.99,7.35-4.34,14.26-2.28,20.74,2.36,1.27.35,2.17.47,2.83.28.18-.05.34-.14.49-.25.03-.02.06-.04.09-.06.67-.56.96-1.75,1.17-3.8-1.93-7.95-.97-18.2,3.7-24.61,1.08-1.48,2.35-2.75,3.84-3.75,7.8-5.22,19.52-1.89,23.7,6.73,1.9,3.93,2.7,7.95,2.63,12.03-.06,3.17-.64,6.37-1.65,9.57,0,1.53.24,2.69.72,3.5.16.27.34.5.55.69.84.76,2.11.88,3.84.4,4.12-1.67,8.19-3.25,12.83-3.14,9.99.24,16.06,8.21,13.32,17.88-.84,2.95-3,5.59-5.79,7.59-.72.51-1.48.97-2.27,1.39-4.32,2.31-9.53,3.18-13.69,1.62-1.06.02-1.81.2-2.29.53-.35.24-.55.57-.58.98-.04.59.24,1.34.84,2.27,1.41,1.98,2.61,4.05,3.59,6.21.49,1.08.93,2.19,1.33,3.33.39,1.14.74,2.3,1.03,3.49,2.09,8.4-3.47,13.34-11.11,11.44-5.91-1.48-10.98-4.92-13.67-10.89-.68-.28-1.07-.8-1.38-1.37s-.56-1.19-.96-1.69h0c-.71,0-1.43,0-2.14,0-.48,0-.95,0-1.43,0-.78,1.27-1.56,2.54-2.34,3.81-1.9,3.92-4.53,6.82-7.71,8.86-3.18,2.04-6.92,3.2-11.05,3.65-6.06.65-10.18-5.31-8.79-12.03Z"/>
      <path class="cls-3" d="m113.64,58.82c-.21,10.85-7.21,18.81-22.63,19.93,1.22,3.17,2.63,6.28,3.63,9.53,1.65,5.37,1.94,10.53-2.75,14.87-4.54,4.2-9.54,3.71-14.8,2-6.48-2.11-10.71-6.92-14.54-12.3-4.06,9.22-17.81,18.54-28.8,14.86-6.08,10.29-11.39,20.96-15.83,32.06-8.28,20.67-12.63,42.24-14.06,64.36-1.01,15.65.2,31.31,3.11,46.71,4.17,22.09,11.53,43.08,22.55,62.81,9.33,16.7,20.64,31.87,33.85,45.61,6.1,6.34,12.82,12.08,19.71,17.61,11.66,9.36,24.1,17.58,37.46,24.21,16.61,8.24,33.93,14.68,52.12,18.65,14.07,3.07,28.3,4.92,42.68,5.31,7.31.2,14.64.07,21.99-.48,9.04-.68,18.03-1.64,26.87-3.38,22.78-4.48,44.52-11.97,64.95-23.2,17.19-9.45,32.82-21,47.06-34.39,10.33-9.72,19.32-20.68,27.38-32.35,12.67-18.33,22.16-38.23,28.42-59.63,4.86-16.6,7.57-33.57,8.09-50.84.36-11.8-.44-23.52-2.08-35.26-2.89-20.72-8.87-40.47-17.91-59.23-11.59-24.05-27.04-45.3-46.83-63.44-10.39-9.53-21.43-18.07-33.3-25.58-10.33-6.53-21.35-11.75-32.49-16.73-1.43-.64-2.46-.97-3.29,1.19-11.28,29.71-22.69,59.38-34.07,89.05-1.82,4.75-3.73,9.48-5.53,14.24-.77,2.05-2.29,2.4-4.19,2.2-1.54-.17-2.05-1.09-2.16-2.52-.98-12.96-1.99-25.93-2.99-38.89-.53-6.79-1.01-13.59-1.58-20.38-.93-10.97-2.11-21.93-2.85-32.91-.51-7.67-1.65-15.28-1.65-22.99,0-2.66-1.18-4.55-4.37-4.68-4.82-.2-9.63-1.03-14.44-1.02-7.7.02-15.39,0-23.11.5-13.29.85-26.3,2.98-39.21,5.96-19.52,4.51-37.83,12.23-55.33,21.82-3.31,1.81-6.69,3.56-9.88,5.61-1.92,1.23-3.77,2.56-5.49,4.08,10.47,1.01,16.47,8.57,16.3,17.03Z"/>
      <path class="cls-1" d="m64.3,88.37c1.26-.3,2.5-.62,3.71-1,.48-.15.96-.31,1.43-.47.55-.19,1.09-.4,1.63-.62,2.77-1.15,5.35-2.72,7.64-5.07,11.78-12.1,6.78-32.22-9.44-37.25-15.58-4.83-31.27,6.2-31.08,21.84.14,11.8,9.83,21.5,22.54,22.57.48,0,.95,0,1.43,0,.71,0,1.43,0,2.14,0h0Z"/>
      <path class="cls-1" d="m64.3,88.37h0c-.71,0-1.43,0-2.14,0,.71,0,1.43,0,2.14,0h0s0,0,0,0Z"/>
      <path class="cls-5" d="m45.77,44.17c2.19-1.62,4.66-2.88,7.27-3.75,5.24-1.73,11.11-1.89,16.76-.21,2.82.84,5.59,2.14,8.19,3.94,1.01-3.2,1.6-6.4,1.65-9.57.07-4.08-.73-8.11-2.63-12.03-4.18-8.62-15.91-11.95-23.7-6.73-1.48.99-2.76,2.27-3.84,3.75-4.67,6.41-5.63,16.66-3.7,24.61Z"/>
      <path class="cls-5" d="m87.49,74.07c4.16,1.56,9.37.69,13.69-1.62.79-.42,1.55-.87,2.27-1.39,2.79-1.99,4.95-4.64,5.79-7.59,2.74-9.67-3.33-17.64-13.32-17.88-4.64-.11-8.71,1.47-12.83,3.14,5.33,7.77,7.96,16.02,4.4,25.34Z"/>
      <path class="cls-5" d="m103.45,71.07c-.72.51-1.48.97-2.27,1.39.79-.42,1.55-.87,2.27-1.39Z"/>
      <path class="cls-7" d="m53.87,90.97c1.5.49,3.28-.12,4.53,1.21.78-1.27,1.56-2.54,2.34-3.81-12.71-1.07-22.4-10.77-22.54-22.57-.19-15.64,15.5-26.67,31.08-21.84,16.22,5.03,21.22,25.15,9.44,37.25-2.29,2.35-4.87,3.92-7.64,5.07-.53.22-1.08.43-1.63.62-.47.17-.95.32-1.43.47-1.21.37-2.45.7-3.71,1,.4.5.64,1.12.96,1.69s.7,1.08,1.38,1.37c8.5-1.44,14.95-5.72,18.83-13.57-.6-.93-.88-1.69-.84-2.27.03-.41.23-.74.58-.98.47-.33,1.23-.51,2.29-.53,3.56-9.32.93-17.56-4.4-25.34-1.72.48-2.99.36-3.84-.4-.21-.19-.39-.42-.55-.69-.47-.81-.71-1.97-.72-3.5-2.6-1.8-5.36-3.1-8.19-3.94-5.64-1.68-11.52-1.52-16.76.21-2.62.87-5.08,2.13-7.27,3.75,0,0,0,0,0,0,0,0,0,0,0,0-.21,2.05-.5,3.24-1.17,3.8-.03.02-.06.04-.09.06-.15.11-.3.19-.49.25-.65.19-1.56.07-2.83-.28-4.85,6.4-7.98,13.3-6.12,21.6.81.86,1.63,1.72,2.03,2.69.1.24.17.49.21.75.04.26.04.52,0,.8-.07.55-.3,1.14-.75,1.78,3.54,7.63,9.28,12.74,17.3,15.35Z"/>
      <path class="cls-7" d="m84.63,75.59c.03-.41.23-.74.58-.98-.35.24-.55.57-.58.98Z"/>
      <path class="cls-7" d="m44.6,47.97s-.06.04-.09.06c.03-.02.06-.04.09-.06Z"/>
      <path class="cls-7" d="m64.3,88.37c.4.5.64,1.12.96,1.69-.31-.57-.56-1.19-.96-1.69,0,0,0,0,0,0Z"/>
      <path class="cls-7" d="m71.07,86.28c-.53.22-1.08.43-1.63.62.55-.19,1.09-.4,1.63-.62Z"/>
      <path class="cls-7" d="m64.3,88.37c1.26-.3,2.5-.62,3.71-1-1.21.37-2.45.7-3.71,1h0Z"/>
      <polygon class="cls-7" points="64.3 88.37 64.3 88.37 64.3 88.37 64.3 88.37 64.3 88.37"/>
      <path class="cls-7" d="m45.77,44.17c2.19-1.62,4.65-2.88,7.27-3.75-2.62.87-5.08,2.13-7.27,3.75,0,0,0,0,0,0Z"/>
      <path class="cls-5" d="m41.19,48c-6.48-4.64-13.39-6.7-20.74-2.36-8.23,4.86-9.5,15.04-.93,19.99.61.35,1.22.68,1.83.98,1.23.6,2.49,1.11,3.76,1.52,1.27.41,2.57.74,3.89.98,1.98.36,4,.52,6.08.5-1.86-8.31,1.27-15.2,6.12-21.6Z"/>
      <path class="cls-5" d="m39.64,104.69c4.13-.45,7.87-1.61,11.05-3.65,3.18-2.04,5.8-4.94,7.71-8.86-1.25-1.33-3.03-.73-4.53-1.21-8.02-2.62-13.76-7.73-17.3-15.35-2.95,5.33-4.51,11.14-5.73,17.05-1.38,6.72,2.73,12.68,8.79,12.03Z"/>
      <path class="cls-5" d="m66.64,91.43c2.69,5.97,7.76,9.42,13.67,10.89,7.64,1.91,13.2-3.04,11.11-11.44-.3-1.19-.64-2.35-1.03-3.49-.39-1.14-.83-2.24-1.33-3.33-.99-2.17-2.18-4.23-3.59-6.21-3.88,7.85-10.33,12.13-18.83,13.57Z"/>
    </g>
  </g>
</svg>